<svg xmlns="http://www.w3.org/2000/svg">
<symbol xmlns="http://www.w3.org/2000/svg" id="logo-devSnaps" height="135.47mm" viewBox="0 0 135.47408 135.46666" width="135.47mm" version="1.1"><path d="m67.601-0.0000034771c-2.2327 0-4.4636 0.85104-6.1686 2.5551l-58.878 58.87c-3.4059 3.4102-3.4059 8.9313 0 12.337l59.154 59.148c3.4059 3.4058 8.9271 3.4058 12.337 0l58.875-58.872c3.4073-3.4072 3.4058-8.9291 0-12.337l-59.151-59.146c-1.703-1.704-3.936-2.555-6.168-2.555zm7.676 33.727c0.19412-0.02121 0.38824 0.000139 0.58588 0.06437l3.073 0.8429c0.42957 0.13122 0.74976 0.38971 0.96384 0.77108 0.21409 0.3813 0.25673 0.78468 0.12851 1.2133l-18.479 63.962c-0.13122 0.42964-0.38971 0.75356-0.77109 0.96762-0.38129 0.21409-0.76901 0.25681-1.1642 0.12852l-3.0692-0.84306c-0.42914-0.13122-0.75312-0.38978-0.96763-0.77108-0.21409-0.3813-0.25681-0.78469-0.12851-1.2133l18.479-63.969c0.13121-0.42957 0.38978-0.75357 0.77107-0.96762 0.19061-0.10701 0.38415-0.1713 0.57835-0.19273zm13.07 9.2794c0.42965 0 0.81089 0.16779 1.1415 0.49891l23.087 23.083c0.33112 0.33061 0.49518 0.7119 0.49518 1.1415 0 0.42957-0.16413 0.81088-0.49518 1.1415l-23.087 23.087c-0.33061 0.33061-0.71191 0.49518-1.1415 0.49518-0.42957 0-0.81088-0.1645-1.1415-0.49518l-2.4758-2.4795c-0.32915-0.32863-0.49321-0.70751-0.49518-1.1339v-0.004-0.004c0.002-0.42598 0.16603-0.80481 0.49518-1.1339l19.466-19.469-19.469-19.473c-0.33112-0.33061-0.49518-0.7081-0.49518-1.1377 0-0.42957 0.16413-0.81089 0.49518-1.1415l2.4758-2.4757c0.33061-0.33112 0.71191-0.49891 1.1415-0.49891zm-41.219 0.008c0.42957 0 0.80712 0.1645 1.1377 0.49518l2.4795 2.4795c0.33112 0.33061 0.49518 0.7081 0.49518 1.1377 0 0.42957-0.16414 0.81089-0.49518 1.1415l-19.47 19.469 19.47 19.473c0.33112 0.33061 0.49518 0.7081 0.49518 1.1377 0 0.42957-0.16414 0.81089-0.49518 1.1415l-2.4795 2.4758c-0.33061 0.33061-0.7081 0.49891-1.1377 0.49891-0.42957 0-0.81089-0.16837-1.1415-0.49891l-23.086-23.081c-0.33061-0.33061-0.49518-0.7119-0.49518-1.1415v-0.008c0-0.42957 0.1645-0.80711 0.49518-1.1377l23.087-23.087c0.33061-0.33061 0.7119-0.49518 1.1415-0.49518z" fill="currentColor"/>
</symbol>
</svg>
