<svg xmlns="http://www.w3.org/2000/svg">
<symbol xmlns="http://www.w3.org/2000/svg" id="logo-devSnaps" height="135.47mm" viewBox="0 0 135.47408 135.46666" width="135.47mm" version="1.1"><path d="m67.601-0.0000034771c-2.2327 0-4.4636 0.85104-6.1686 2.5551l-58.878 58.87c-3.4059 3.4102-3.4059 8.9313 0 12.337l59.154 59.148c3.4059 3.4058 8.9271 3.4058 12.337 0l58.875-58.872c3.4073-3.4072 3.4058-8.9291 0-12.337l-59.151-59.146c-1.703-1.704-3.936-2.555-6.168-2.555zm7.676 33.727c0.19412-0.02121 0.38824 0.000139 0.58588 0.06437l3.073 0.8429c0.42957 0.13122 0.74976 0.38971 0.96384 0.77108 0.21409 0.3813 0.25673 0.78468 0.12851 1.2133l-18.479 63.962c-0.13122 0.42964-0.38971 0.75356-0.77109 0.96762-0.38129 0.21409-0.76901 0.25681-1.1642 0.12852l-3.0692-0.84306c-0.42914-0.13122-0.75312-0.38978-0.96763-0.77108-0.21409-0.3813-0.25681-0.78469-0.12851-1.2133l18.479-63.969c0.13121-0.42957 0.38978-0.75357 0.77107-0.96762 0.19061-0.10701 0.38415-0.1713 0.57835-0.19273zm13.07 9.2794c0.42965 0 0.81089 0.16779 1.1415 0.49891l23.087 23.083c0.33112 0.33061 0.49518 0.7119 0.49518 1.1415 0 0.42957-0.16413 0.81088-0.49518 1.1415l-23.087 23.087c-0.33061 0.33061-0.71191 0.49518-1.1415 0.49518-0.42957 0-0.81088-0.1645-1.1415-0.49518l-2.4758-2.4795c-0.32915-0.32863-0.49321-0.70751-0.49518-1.1339v-0.004-0.004c0.002-0.42598 0.16603-0.80481 0.49518-1.1339l19.466-19.469-19.469-19.473c-0.33112-0.33061-0.49518-0.7081-0.49518-1.1377 0-0.42957 0.16413-0.81089 0.49518-1.1415l2.4758-2.4757c0.33061-0.33112 0.71191-0.49891 1.1415-0.49891zm-41.219 0.008c0.42957 0 0.80712 0.1645 1.1377 0.49518l2.4795 2.4795c0.33112 0.33061 0.49518 0.7081 0.49518 1.1377 0 0.42957-0.16414 0.81089-0.49518 1.1415l-19.47 19.469 19.47 19.473c0.33112 0.33061 0.49518 0.7081 0.49518 1.1377 0 0.42957-0.16414 0.81089-0.49518 1.1415l-2.4795 2.4758c-0.33061 0.33061-0.7081 0.49891-1.1377 0.49891-0.42957 0-0.81089-0.16837-1.1415-0.49891l-23.086-23.081c-0.33061-0.33061-0.49518-0.7119-0.49518-1.1415v-0.008c0-0.42957 0.1645-0.80711 0.49518-1.1377l23.087-23.087c0.33061-0.33061 0.7119-0.49518 1.1415-0.49518z" fill="currentColor"/>
</symbol>
<symbol xmlns="http://www.w3.org/2000/svg" id="anonMask" height="20" width="17.285" version="1.1" viewBox="0 0 17.285023 20">
<path d="m7.8017 19.744c-3.9789-2.352-6.0455-4.196-7.0978-6.332-0.52042-1.057-0.5622-1.461-0.63062-6.1011l-0.07328-4.9692 1.7546-0.8333c4.2363-2.0118 9.5337-2.0112 13.772 0.0017l1.7582 0.83497-0.07686 5.0872c-0.07275 4.815-0.10792 5.1511-0.65743 6.2833-0.86291 1.7778-3.3597 4.1202-5.6757 5.3249-2.0863 1.0852-2.3324 1.1415-3.0734 0.70351zm0.84978-3.9951c0.68671 0 0.70516 0.03129 0.70516 1.1961 0 0.65786 0.098631 1.1961 0.21918 1.1961 0.42666 0 3.8263-2.4175 4.4674-3.1767 0.35778-0.42373 0.90188-1.3087 1.2091-1.9665 0.52026-1.114 0.55876-1.4929 0.56093-5.521l0.0024-4.3249-1.1363-0.50542c-2.2047-0.98062-3.0052-1.1304-6.0404-1.1304s-3.8357 0.1498-6.0403 1.1304l-1.1363 0.50542 0.00235 4.2053c0.00222 3.9525 0.037402 4.2806 0.58556 5.458 0.67948 1.4595 2.2879 3.1088 4.3161 4.4261l1.4353 0.93217 0.072307-1.2123c0.069528-1.1664 0.098973-1.2123 0.77743-1.2123zm-4.4591-2.9305c-0.4911-0.82232-0.94835-1.5961-1.0161-1.7195-0.14152-0.25775 2.094 1.3149 2.267 1.5948 0.25746 0.41658 1.2359 0.1391 1.88-0.53313 0.42215-0.44063 0.93005-0.71766 1.3157-0.71766 0.38567 0 0.89357 0.27703 1.3157 0.71766 0.64403 0.67223 1.6225 0.94971 1.88 0.53313 0.17297-0.27987 2.4085-1.8525 2.267-1.5948-0.06776 0.1234-0.52501 0.89718-1.0161 1.7195l-0.89292 1.4951h-1.3394c-0.91059 0-1.4794-0.12674-1.7768-0.39591-0.40707-0.3684-0.46787-0.3684-0.87495 0-0.29742 0.26916-0.86625 0.39591-1.7768 0.39591h-1.3402zm-0.5173-5.199c-0.7231-0.3056-0.6785-0.6799 0.1171-0.9823 1.1464-0.4359 2.8964 0.154 2.2814 0.7689-0.3423 0.3424-1.7889 0.4711-2.3985 0.2134zm7.8943 0c-0.72312-0.30562-0.6785-0.67987 0.11712-0.98236 1.1464-0.43587 2.8964 0.154 2.2814 0.76899-0.34232 0.34232-1.789 0.47102-2.3986 0.21338zm-5.4419-2.1567c-1.0761-1.102-1.7077-1.1972-2.9304-0.44152l-0.83389 0.51537 0.28267-0.52817c0.36617-0.68419 1.6424-1.4577 2.4051-1.4577 0.7685 0 2.0147 0.76086 2.5271 1.5429 0.32267 0.49246 0.34267 0.6799 0.10332 0.96831-0.41951 0.50548-0.50884 0.47103-1.5539-0.59925zm3.4697 0.59925c-0.67486-0.81315 1.317-2.5105 2.9479-2.5121 0.70194-0.000672 1.0854 0.16901 1.6439 0.72751 0.86466 0.86466 0.73155 1.2174-0.18681 0.49498-0.93498-0.73545-1.4194-0.6333-2.7066 0.57078-0.63298 0.59207-1.2073 1.0765-1.2762 1.0765-0.068924 0-0.25888-0.16094-0.42213-0.35764z" fill="currentColor"/>
</symbol>
</svg>
